<svg width="30" height="43" viewBox="0 0 30 43" fill="none" xmlns="http://www.w3.org/2000/svg">
<g clip-path="url(#clip0)">
<path d="M14.3679 0C14.3679 0 26.8303 7.27351 24.4647 24.3626C24.4647 24.3626 27.8765 22.147 29.0053 19.4856C29.0053 19.4856 32.028 28.1986 27.526 35.6819C24.2288 41.1659 17.745 44.1039 11.4478 42.6146C9.51001 42.1518 7.67882 41.3337 6.05021 40.2023C-2.70323 34.1913 0.0688719 23.1565 1.97203 20.0546C1.97203 20.0546 5.19326 13.8915 4.98935 9.6399C6.73124 11.0178 8.3292 12.5648 9.76057 14.2547C9.76057 14.2547 14.5851 9.68054 14.3679 0Z" fill="#A20C0C"/>
<path d="M16.1482 18.9211C16.1482 18.9211 20.2968 24.8674 19.2837 31.2098C20.5234 30.9314 21.4837 29.9785 21.748 28.7671C21.748 28.7671 24.6861 35.5812 18.9481 39.2667C17.8897 39.9569 16.6586 40.353 15.3854 40.4139C13.2016 40.5085 11.0879 39.6575 9.60974 38.09C8.24054 36.6991 7.48419 34.8416 7.50038 32.9149C7.52951 31.6373 7.88125 30.385 8.52431 29.2714C9.26016 27.9603 10.4945 25.5996 10.7006 24.1803C10.7006 24.1803 12.1205 24.7066 13.0441 27.2459C13.0452 27.2459 16.159 24.8243 16.1482 18.9211Z" fill="white"/>
</g>
<defs>
<clipPath id="clip0">
<rect width="30" height="43" fill="white"/>
</clipPath>
</defs>
</svg>
